<mxfile host="app.diagrams.net" modified="2023-12-19T10:10:10.679Z" agent="Mozilla/5.0 (Windows NT 10.0; Win64; x64) AppleWebKit/537.36 (KHTML, like Gecko) Chrome/120.0.0.0 Safari/537.36" etag="X1_cuzjTQ-nmMfNpVqTl" version="22.1.11" type="github">
  <diagram name="Page-1" id="Ix1FzfV_l1rNgaoOrP7w">
    <mxGraphModel dx="1050" dy="1622" grid="1" gridSize="10" guides="1" tooltips="1" connect="1" arrows="1" fold="1" page="1" pageScale="1" pageWidth="850" pageHeight="1100" math="0" shadow="0">
      <root>
        <mxCell id="0" />
        <mxCell id="1" parent="0" />
        <mxCell id="6F0w-NDkWvbNgcwxt4U1-1" value="" style="shape=image;html=1;verticalAlign=top;verticalLabelPosition=bottom;labelBackgroundColor=none;imageAspect=0;aspect=fixed;image=https://cdn1.iconfinder.com/data/icons/picons-social/57/github_rounded-128.png;fillColor=#182E3E;strokeColor=#FFFFFF;fontColor=#FFFFFF;" vertex="1" parent="1">
          <mxGeometry x="140" y="-986.5" width="50" height="50" as="geometry" />
        </mxCell>
        <mxCell id="6F0w-NDkWvbNgcwxt4U1-29" value="" style="edgeStyle=orthogonalEdgeStyle;rounded=0;orthogonalLoop=1;jettySize=auto;html=1;labelBackgroundColor=none;strokeColor=#23445D;fontColor=default;" edge="1" parent="1" source="6F0w-NDkWvbNgcwxt4U1-2" target="6F0w-NDkWvbNgcwxt4U1-28">
          <mxGeometry relative="1" as="geometry" />
        </mxCell>
        <mxCell id="6F0w-NDkWvbNgcwxt4U1-2" value="" style="sketch=0;pointerEvents=1;shadow=0;dashed=0;html=1;strokeColor=none;labelPosition=center;verticalLabelPosition=bottom;verticalAlign=top;align=center;fillColor=#182E3E;shape=mxgraph.mscae.intune.user_group;labelBackgroundColor=none;fontColor=#FFFFFF;" vertex="1" parent="1">
          <mxGeometry x="42.88" y="-880" width="40" height="40" as="geometry" />
        </mxCell>
        <mxCell id="6F0w-NDkWvbNgcwxt4U1-46" value="" style="edgeStyle=orthogonalEdgeStyle;rounded=0;orthogonalLoop=1;jettySize=auto;html=1;strokeColor=#23445D;startArrow=block;startFill=1;" edge="1" parent="1" source="6F0w-NDkWvbNgcwxt4U1-4" target="6F0w-NDkWvbNgcwxt4U1-15">
          <mxGeometry relative="1" as="geometry" />
        </mxCell>
        <mxCell id="6F0w-NDkWvbNgcwxt4U1-4" value="" style="shape=image;verticalLabelPosition=bottom;labelBackgroundColor=none;verticalAlign=top;aspect=fixed;imageAspect=0;image=https://static-00.iconduck.com/assets.00/sonarqube-icon-2048x499-b6mw67zs.png;fillColor=#182E3E;strokeColor=#FFFFFF;fontColor=#FFFFFF;" vertex="1" parent="1">
          <mxGeometry x="407.42" y="-790" width="120" height="29.2" as="geometry" />
        </mxCell>
        <mxCell id="6F0w-NDkWvbNgcwxt4U1-47" value="" style="edgeStyle=orthogonalEdgeStyle;rounded=0;orthogonalLoop=1;jettySize=auto;html=1;strokeColor=#23445D;" edge="1" parent="1" source="6F0w-NDkWvbNgcwxt4U1-5" target="6F0w-NDkWvbNgcwxt4U1-9">
          <mxGeometry relative="1" as="geometry" />
        </mxCell>
        <mxCell id="6F0w-NDkWvbNgcwxt4U1-5" value="" style="shape=image;verticalLabelPosition=bottom;labelBackgroundColor=none;verticalAlign=top;aspect=fixed;imageAspect=0;image=https://maven.apache.org/images/maven-logo-black-on-white.png;fillColor=#182E3E;strokeColor=#FFFFFF;fontColor=#FFFFFF;" vertex="1" parent="1">
          <mxGeometry x="700" y="-870.33" width="90.46" height="22.88" as="geometry" />
        </mxCell>
        <mxCell id="6F0w-NDkWvbNgcwxt4U1-40" value="" style="edgeStyle=orthogonalEdgeStyle;rounded=0;orthogonalLoop=1;jettySize=auto;html=1;labelBackgroundColor=none;strokeColor=#23445D;fontColor=default;" edge="1" parent="1" source="6F0w-NDkWvbNgcwxt4U1-8" target="6F0w-NDkWvbNgcwxt4U1-15">
          <mxGeometry relative="1" as="geometry" />
        </mxCell>
        <mxCell id="6F0w-NDkWvbNgcwxt4U1-8" value="" style="shape=image;verticalLabelPosition=bottom;labelBackgroundColor=none;verticalAlign=top;aspect=fixed;imageAspect=0;image=https://1.bp.blogspot.com/-XFQF3YnaGaA/Wocam-LrNbI/AAAAAAAAKTE/0jSjI79KaJwsdRg0UbLgpJDl7t7s-ff6ACLcBGAs/s1600/DependencyCheck.png;imageBorder=default;fillColor=#182E3E;strokeColor=#FFFFFF;fontColor=#FFFFFF;strokeWidth=1;perimeterSpacing=13;" vertex="1" parent="1">
          <mxGeometry x="380.59" y="-877.78" width="119.41" height="37.78" as="geometry" />
        </mxCell>
        <mxCell id="6F0w-NDkWvbNgcwxt4U1-48" value="" style="edgeStyle=orthogonalEdgeStyle;rounded=0;orthogonalLoop=1;jettySize=auto;html=1;strokeColor=#23445D;" edge="1" parent="1" source="6F0w-NDkWvbNgcwxt4U1-9" target="6F0w-NDkWvbNgcwxt4U1-10">
          <mxGeometry relative="1" as="geometry" />
        </mxCell>
        <mxCell id="6F0w-NDkWvbNgcwxt4U1-9" value="" style="shape=image;verticalLabelPosition=bottom;labelBackgroundColor=none;verticalAlign=top;aspect=fixed;imageAspect=0;image=https://maven.apache.org/images/maven-logo-black-on-white.png;fillColor=#182E3E;strokeColor=#FFFFFF;fontColor=#FFFFFF;" vertex="1" parent="1">
          <mxGeometry x="699.59" y="-750" width="90.46" height="22.88" as="geometry" />
        </mxCell>
        <mxCell id="6F0w-NDkWvbNgcwxt4U1-49" value="" style="edgeStyle=orthogonalEdgeStyle;rounded=0;orthogonalLoop=1;jettySize=auto;html=1;strokeColor=#23445D;" edge="1" parent="1" source="6F0w-NDkWvbNgcwxt4U1-10" target="6F0w-NDkWvbNgcwxt4U1-11">
          <mxGeometry relative="1" as="geometry" />
        </mxCell>
        <mxCell id="6F0w-NDkWvbNgcwxt4U1-10" value="" style="shape=image;verticalLabelPosition=bottom;labelBackgroundColor=none;verticalAlign=top;aspect=fixed;imageAspect=0;image=https://www.ianlewis.org/assets/images/docker/large_v-trans.png;fillColor=#182E3E;strokeColor=#FFFFFF;fontColor=#FFFFFF;" vertex="1" parent="1">
          <mxGeometry x="700" y="-630" width="89.63" height="80" as="geometry" />
        </mxCell>
        <mxCell id="6F0w-NDkWvbNgcwxt4U1-55" value="" style="edgeStyle=orthogonalEdgeStyle;rounded=0;orthogonalLoop=1;jettySize=auto;html=1;strokeColor=#23445D;entryX=1.013;entryY=0.439;entryDx=0;entryDy=0;entryPerimeter=0;" edge="1" parent="1" source="6F0w-NDkWvbNgcwxt4U1-11" target="6F0w-NDkWvbNgcwxt4U1-51">
          <mxGeometry relative="1" as="geometry">
            <mxPoint x="462.58500000000004" y="-590" as="targetPoint" />
            <Array as="points">
              <mxPoint x="410" y="-598" />
              <mxPoint x="410" y="-598" />
            </Array>
          </mxGeometry>
        </mxCell>
        <mxCell id="6F0w-NDkWvbNgcwxt4U1-11" value="" style="shape=image;verticalLabelPosition=bottom;labelBackgroundColor=none;verticalAlign=top;aspect=fixed;imageAspect=0;image=https://static-00.iconduck.com/assets.00/trivy-icon-1248x2048-jvb9x51r.png;fillColor=#182E3E;strokeColor=#FFFFFF;fontColor=#FFFFFF;" vertex="1" parent="1">
          <mxGeometry x="510" y="-635" width="54.83" height="90" as="geometry" />
        </mxCell>
        <mxCell id="6F0w-NDkWvbNgcwxt4U1-43" value="" style="edgeStyle=orthogonalEdgeStyle;rounded=0;orthogonalLoop=1;jettySize=auto;html=1;strokeColor=#23445D;" edge="1" parent="1" source="6F0w-NDkWvbNgcwxt4U1-15" target="6F0w-NDkWvbNgcwxt4U1-5">
          <mxGeometry relative="1" as="geometry" />
        </mxCell>
        <mxCell id="6F0w-NDkWvbNgcwxt4U1-44" value="" style="edgeStyle=orthogonalEdgeStyle;rounded=0;orthogonalLoop=1;jettySize=auto;html=1;strokeColor=#23445D;" edge="1" parent="1" source="6F0w-NDkWvbNgcwxt4U1-15" target="6F0w-NDkWvbNgcwxt4U1-17">
          <mxGeometry relative="1" as="geometry">
            <Array as="points">
              <mxPoint x="605" y="-726" />
            </Array>
          </mxGeometry>
        </mxCell>
        <mxCell id="6F0w-NDkWvbNgcwxt4U1-15" value="" style="shape=image;verticalLabelPosition=bottom;labelBackgroundColor=none;verticalAlign=top;aspect=fixed;imageAspect=0;image=https://seeklogo.com/images/G/github-actions-logo-031704BDC6-seeklogo.com.png;fillColor=#182E3E;strokeColor=#FFFFFF;fontColor=#FFFFFF;" vertex="1" parent="1">
          <mxGeometry x="575.56" y="-888.34" width="58.89" height="58.89" as="geometry" />
        </mxCell>
        <mxCell id="6F0w-NDkWvbNgcwxt4U1-17" value="" style="shape=image;verticalLabelPosition=bottom;labelBackgroundColor=none;verticalAlign=top;aspect=fixed;imageAspect=0;image=https://www.svgrepo.com/show/373515/codeql.svg;fillColor=#182E3E;strokeColor=#FFFFFF;fontColor=#FFFFFF;" vertex="1" parent="1">
          <mxGeometry x="407.41999999999996" y="-760.8" width="69.2" height="69.2" as="geometry" />
        </mxCell>
        <mxCell id="6F0w-NDkWvbNgcwxt4U1-18" value="" style="shape=image;verticalLabelPosition=bottom;labelBackgroundColor=none;verticalAlign=top;aspect=fixed;imageAspect=0;image=data:image/png,iVBORw0KGgoAAAANSUhEUgAAANgAAADqCAMAAAD3THt5AAAA0lBMVEX///8cHyoAAAAaunMptHMAtmkAt2yXl5sACBoAABHy8vIAtWYAAAgPuXDx+vb1/PkArmfHx8ePj49ZyJLM7Ns7un7b29t9fX21tbWi3b5Fw4epqal40KPs+PJhypat4caI1q+/v8EzMzMAABBjY2Pm5uYRFSLj9ex7zKO25c0VGSUMEB+hoaERERFmZmaFhYVJSUlwz6DI69kqLDbQ0NIoKChYWFhTU1OZ27otvnzK7NtdX2VNT1Z0dXo4OkIhISE/Pz9HvINAQkoAqVllZmwvMjvAXQstAAAQFElEQVR4nO2dfX+aPBfHVUZqVaQ+1FZ8rK21tradznWya1u33dv7f0t3cpJAAglFh0L98PtjUyCHfEnOyUkEWigcShXyj20f7HwHUufHJflvcLZKuyaJqvK9VLoiHwZnZ79madcmOS2uH4qnDOzDh7O7etoVSkZXn06LRQEMo3XTrlMC6nwr3RcDYB/OPrx3V6tclG6LxRAYRhu+a1frXZeLRSUYRhu/29Df+HFdLGrBcH8cpV3DnTT9jzqXFgyjnbfTruX2anLnigDDaMtB2hXdTpe35WIxBhhxtZSruo3WP2r3xZhg2NXmadc3pip/SiGsCDCM9utduNpJ6SGMFQmG0fqZd7XLYtC5mGpRYBhtk3bNI9X5FnYu0P313ykcMdSSZdjV8OREjVUsP/T4Qe1zLVpWJzQnZaVzFYu3peeKcNxIR4YnNBnMsq7uT9VY96X/pvKh9p0eLWsTGjw5UWMVTz81wofPWtr+eJ6lCQ12rls11sP1Ql1k9UGLlp0JzeJU41z3pe8Vbamuvj+OD1f3CNGZvwqr9rsTVbDez3Lo5zN/hXMVr94qPPulD/3pZln+zD/kXKWTOAbmeldLcy1rcarJn+5Lf/TOJWujd7W0sqzG32sNVu33Or6ZwVLvammE/sDMX1C5fLmdqYgsq3Xw0P+sc67bWnN7axGu1j9oltULzfw95wrmT/FkjzUTtcMmIie6Xnj9YwvnkjVQTGgOvkB3om6vcrn3dlm9Qq52+CVVJdht7TluiNdpdCaup6aQM6rAat8i86d48ic0onMlYDimwmCn92/mT/HEsixhXrb+u0OY3VFBsIfTWPlTPOEJjZBOTf+UkjT+hmSw26jJyS7q+s51cv1QLKcEdpuEc6l1eU9OlBZYLdnm8tX5VqOjyHGB+csNxwUmLDccFZi43HBMYJVa8UjBTnOwRJWDcdVtJvp11l2e30Ud/17A6v87o/pAvq1+4Q9nxwHGJyPn+DP7PeLYwNr843GB/Zp5U+TjAjv3Z/7HBfbh2MFwgDxCsLPz/qa7ifyx+T2CnY1jrKq9P7CY93K8P7BlvBO8O7DzmCfIwRJWDsaUg3HlYAkrB2PKwbhysISVgzHlYFw5WMLKwZhyMK4cLGHlYEw5GNd7Azs7NjB7eccU8wTvBWxr5WAJKwfbVTlYwpLAThO6G1hUo5wBsGJtt4cj9Jr+J94jlh5Y8aGU6H3WzcAz/emB4XMXt3wASS96H3BWwHB/jH4eM67Wv2sh0+mCRT9BG1Pqx45TBov9WGaEWfULMw4JpnlA+PTTP4R+7WPHB3xSYl3UPvq869MF2hdm4FPt/EzaDiKPZii12/MgEY8dH7C9aFW0rxcolzWvF9BrUdY+GZnwYzNxxJ/QUHQe1Qsh9GronCuZZ9J2UPjlU96Fjp9lRTx2fJvYqL+1IlztOZ4F7WPHD9cHdi5ZU+U7qOB6P8R4EjXiseM/CWfWW2v941r3YqO3nh1e/9656EEU4WpRlz2isZNLqf9Rekc51U5oTnSvbfnnzCxJbR3aolr58CNXlNa6d2CoBiP9EJgN55LV079vS04fopKWf3qmf1+KeInTqZBlad+JFHvsO7w6v7UpOp/Q6N+JVPqW9sgVpSvthAbqPdW/E+nvVvllCtJMg+HtEc+1bV84liWp3/QJ1dcipzA52UVrrauphDtpOpOTXaQdf8OK8cKxTKlZ0/Q7WQef+f+79FmW2Aszlj/F0/qHLstiWAmtHqegnm6Rhqj8kJXJyS7Sj1y7vHAsS1K72q4vHMuUwqtr99d/szc52UWLB8nVYi3zvA+JK9i3pYv3GOJ1mrLfHO5rmZ6c7CKYiP3T70yZ1cl1uou7+1PlmJwrV65cuXLlypUrV65cuXLlypUrV65c22t61Vs0L8MrhZ3eSe+yk8QKYqXR6/UuGwdZEl98nkxeO/ChRCXfoTG9YJtLN+yHosrjhBXxjsE2Jo94SxN/eBSLX77iQ/kNOo0XbmpygJtbmuREncJVSZDwU9eFuP2G1ZZ8fhRsTMiGJj9aBOuRDRSs8lE0Vdo7GoBNm9JJvbp1XuXtj7QTPZHPT7KJn4VosMqjbKr0sufVcagV7SOfv0zYSS/ovjX99rPZ6zV/ishQSf5D+trfEQFG2+tjc7Fo3lBTe/6tkLfVd+h/lYVQ/ym9ssybOhOvYQod2MNiAFDS35L0YED/mUeNBvbnj/vlYmCPXiwAB6IXGaKJcCfljX+dT8jHCXx8EppYD9YM7Hku7Ts0whnFSDbh1YdK3YjHQnekHz9yaLgQn9kBerAv+P8voq293+gCYOvgBgL2Gqwl7YG001VKtFxF7JRvgImBdP9i4d7XJQMDrwjckkLa6YV+bAARbUTvfhw9GOx5KhxQIbAGAws1JdbC74u0qo9yd9WD0XHysXe4X0C1YB/FPsZ0KW7jmYrQwyLC/YQdPXluHAZOCxYcUD3xDGnKvgfzFM0ALVj4eXKAbFELpuMqebc/QMznkR4UmVI9iUZe9o62PRgPFbwNhMJRYLiJn8VesO/bQ6K7YvMyLH6tv7Aavvplo8Gwpj2/3fY8kmnBXsTWUQgiJND7UfxNMKLOMwWbJFJ/rbRgi6ADBaoHlaPNFmMck8Tcbb9upgWjQU9b7pFWWZF5iPVVg7EEc7/32WrBaM6re5rIS32vxF4FYOKgvtCAQXvvd66pB6NNJteKX2Qh9f0u8ANuM2CLmniSLtGan2R/0oOxGY1w+soN6z5TsQO++vy0hOdkdKDj87EvQh+92X9YjABjAf0L61t0/QBqNxF7UsenoS30CENUpTcp+WCQf13w5SBoZWGYODSYN1Q9PV+8sMGV9ChwJX92tfC/8vzxlUE9MbAO2166eG4+s1WdPd8dHQlWeC4FRHZcyR2O5cvQgB3p4MepFzw6n1WW0gMrdKRFsyfSESte/+Lis05emrcO8zLR/zzt/WnA3svNjZSRrskGIZFbswWqx48sJ3/GB9zIM9AG2UQTEOo/eARokqMviTHe5xbeRXrJyqMilc40/iSq0rhqaBbEK53G1dX62G76zpUrV65cubKuTatfT7sO+5BjWsiy065F8mpXDcMwR2lXI3mtTAyGNvC5PcI6lsazkWUYVfpHGjdVhKpH429tq1plPbGLcK88GrBCwfubmscG5ikH21FyXLLrEXGqXt+6HnZdaxDAto6K0QW6WHPyYbV0kV/ZwdixTOQu58Khc3wohOdRyzCryGjNCwrZMxXyaOhaUKY74JtWxJwNVpcWifykKgO5WPDyzcgxbWbQweGUfA+cqk42jgoIIbOFQ5RrIssDGwyrJBgblmUafu1bJg7KuEKGSfbhvSYKoq36lmniCxL4E8IjxIoYFqouWeWXJMbbYBV24pqgatsv1N642JYp2fpKyoxIEyPLcliVvsp1gLFjUyAnG+IvxDYH6zIqqEq174GRgafQrbI6ws6xaHKOrw6vviNUsV+lW2lBZNLL0Sfm7MJQMGeYXqm2Q6+tbKuNR3U0wjxkh0NHeSvwl31dXMwcANhyVKXNU/fqgS+x6xhQT9QSwNC8ik+FG8WkpzV9MrtFmgV2kv995g3kGMhwHGyWWKx2BbAWvvaUAMtrsbuq0haAzVsIgB1OIfXXryY0FQEzXIS7leEs++COYxMXou0/GxO7vPItaEfDdDft2WA2ck1osxUzODAQOdtw1G7P+1CMXZABzZ1oB2zfYXqa+jKwzXK5dEjt8f/LIe12tkNsmdSWhXxbBMzAMLi6rT6p1gbvRJKXkR5grigY/uTw+hVWuEkMz4fr5JzsOgKYUfX8agPt7Io9oMUK2kPTa2pybtMzX5i5VakrEgWjogMszLfspW8LwHCxIW/ZelWoAt9gkA2Ua+PvIc0sti25Po4PhgRXHpl+gk66h2hmjHhTDz0DTMxpg2D+SZdI6uPU1sYHs4SYRQKqKfiz14TAJRw4QuLlxZpVeZO1LCOwjzQ7rTSZhCDJi6GpB7SYDMb5dGBhWy1uC8BMMeSSg8XwAR3HpmBWqyDukL5Sq6jvmZd2zch5IC0nGEZoH1SPAJiBkBwJRs4jz0DJxYU6QPCQBy5C4g/AJHTQ2tJwL1YnODiNEKtzGAx4SCMCxUaxz2bl0SaUJ+jABoRiLB8LAdn2wr2orhQ+hl7PDIDhw0x5cKXGBmow6NEbFiBm4X2kk9smHX6Xc/kAHRh8acu2RiwAKcCIeS981E3uG0Ew7ItWfyypzy+CAowMkOTqgrMV1PsKczY+40Gs1fXhdGD98Gko0FgJVugjL27TCz1XgUENkSSLhxcFWJuN/G7IxWj3pG69YgkJwDm8p+vAoAsHbA2YLRWYGD5cv6wKLCyI6QqwGRvmoeIqMNot7LHBMhUy7jp2JBg5LthiANZSg8GVQGDoq+m7p6IrOmG5b7QY5CSB8MCh2ZFjx+SZpCtmHiEwGIFVtnRgIy9UwqA2U4JtwsHDkwJsjuglcq1w8IB9fXFLe0wnBnRrZFcM2FqxKK4Esy0WPuqmMHYFwLCFUMEIsDtET0R6cMiprfAQUJgb4LL1CDCYnAUmWWMW05VgUAsSPrpISDYCYDZSpwkaMItNNUg4Dg7s4Cvh1nd5/qIDm/u+6clgCYcajI/f0M+FIiIYCZ5y2hQAkzr/HBL3Asvgq9LgQyKvlJ4yrXjddGB1SJukOnS5LTUYC6RtKUsIgpFx35An5PwbpDpis9i+wwytAAZkW7RfyAPzjLu6NqW6gxgjXMEB4rY0YHOYpvXpDFMDRqaFliuS3SHbBzPQ0Duj7fq9Da6H5Xj7ZpaXH9eRdPl5EhEC89p7YAZsGX6urQajs0oZJQRGJiCWPzGYuwgNBTA87ZvTU9I4wONeF2rDVkjsDfKnOEPcuZdeo81ghx0Gg1q04Tg6oeerLV3Blg5sjIJLCwowmL6a7nj0dd5dWiQ+s5Vo2hURTvuc5Xho0KmRNywv4btpLMfjloX8yfUKakmm3e3ZbNU3vemfAEZ/oDCGDlsD6Pu2hqItLdiMZW2CM4TB8DWmixRs+ciqMoekUdElV9dieYRlCbkfTwn5IgzrgHShiKxfYMHFpyFPACsYbNWDB7WxxpYOjM3uxVFCBYbHVp4AYSxvjYiC2S1vmQq3w0BdChdrecht1/S2kz0sr4PklYG1uU0eWVeWaMvhtrRgK9rGQsTBiSAKgeFu7pAGw1d46Ts+H8fIKhssArrBU2zcKuzBabwU+ucOaX1yKmS2uME+3uKNHm0oaVr+gN7ltkzBFl9XDMsV/B1kE6mOHKxGo/lM3OUP0LPRZjweqVIv2NOdhxaDZ/NNfzhcjoXQHzjz1+6mO5fnzdSWtDg8GNQHyuq2Amsf20iReWRGJHpoU6a3lGWwvpgmbqsMg8HyQ3B2GlsZBrtD4QWg+MomGIlGY1M9k4ipTILZVUR/45HntFspk2AzuppvIMUMKa7IDz6ZA5sjmgM5ytEtnvqtVmvXoWJvGldxBlp1g7/XHoFm7dVKETb+D+BTjOoxLS7wAAAAAElFTkSuQmCC;fillColor=#182E3E;strokeColor=#FFFFFF;fontColor=#FFFFFF;" vertex="1" parent="1">
          <mxGeometry x="115.85000000000001" y="-662.88" width="64.62" height="70" as="geometry" />
        </mxCell>
        <mxCell id="6F0w-NDkWvbNgcwxt4U1-19" value="" style="shape=image;verticalLabelPosition=bottom;labelBackgroundColor=none;verticalAlign=top;aspect=fixed;imageAspect=0;image=https://miro.medium.com/v2/resize:fit:271/1*u7N4KAoe4tDMzs0GEdN1FA.png;fillColor=#182E3E;strokeColor=#FFFFFF;fontColor=#FFFFFF;" vertex="1" parent="1">
          <mxGeometry x="104.45" y="-472.88" width="87.42" height="100" as="geometry" />
        </mxCell>
        <mxCell id="6F0w-NDkWvbNgcwxt4U1-26" value="" style="shape=image;verticalLabelPosition=bottom;labelBackgroundColor=none;verticalAlign=top;aspect=fixed;imageAspect=0;image=data:image/png,iVBORw0KGgoAAAANSUhEUgAAAO4AAADUCAMAAACs0e/bAAAAh1BMVEX///8AcsYAbMQAb8UAcMUAZsIAaMMVeskAa8SPuOEAacP6/v9+q9v7/P5jntaUueHY5vRHj9EtgctgnNYAZMJxoNbx9/zo8fm50evg7PfD2O5FjdDu9fvN3/GEr93c6fWpx+edv+M6h84LdshZltOzzuqoxufH2+8mfsuArdwAXsCMst5xoNdmIpZuAAAQWElEQVR4nO2daYOyug6ApRuIKIKKuLO5zPX9/7/vtjguQCkFijhzJt/OeR3hMWmbpEk7GPxJO9mudn5wCq/Xqx2e/Omy7/fpTg7HvRMDTEzDMAAVwzCJidyJffb6fjXVMrUdExsAIi0nCEGDzHXL3/b9ispkZ+nYgHnQDDQwySb8DZZ9sCABBaVyhGo5Ovb9ti3F32Ap1m9iE+5/sIpDnQhtmGvVk0Pfr91MQmTIK/YpAM9+oIbPF7MJLBOIrXHfr19PtglpCptqGP6oScvGNcdsXhCJfoxFLyPSDpYJNIO+OeTkKHYpZAXhZNQ3ioQs5m1G7auA+OPXJC8yFMFSQeaHz1gHpMSQH7x42DeRSNaN19oyIVbfTOWybrXY8sVM+qYqE1/ZJPUqhtM3F1983AXtp/KeO6KlvLO+2Ypy6IyWP1+NU+nLEdlq3dFqGg6fT1r69iKJdA0QbBqaHiVWMH17bs9Vut4WZL5LnzINE42YLMVHRWOJPQ1BYGDgWut3KjoBndJqCGwHUwtho5jLTP8ZUV0nx3cpOVQQAokFulFV1guaxmz9Dtop7po2tdvqz0Cin7rH1bucpuoJMuOgY1pLYRDUXhC5+F3S7t5gyrUEkU2HmR/3c0z5LvB1oVYrodk3HE/MqJs9Nq9D57GNQLOTEbzo2MFoLAjv1dOuOncwmgtRnxmYdesrtxMQKXakV50sQgDIbQlXf9FF7WZTFyMX4mu6Ca7CbuBFZdjgqVcuwsnNR1gnZqMN06xAV6E926rdR2Tq5+ePeXLr7P3zBWzU4caK11xg5Lyh1V4j/BBXWsyJKtqz2lUI4glnpK1nRjujJrYi3InKVQgRd8p/jHeK5m2MGu+U0I5VKtfQAsGjVte4uVEjqGR69tUFBxBbVTPoeWI03TgGStwrZR4Vws5K4nleUJmvKhGiYuNUjeejIUOXDl5WV70JMTLar747NUMX1Jw5dwvTrG1WYNEad6jCgUR4xovDhcmX0XGD665NuGTWl5dN+6FLFx/eIjG2QHwVjualrdeLImBb52rc0tvRmBMV8L45gIaOAI5OwvVjtyB1jBqfRV9WLa1z6SW1gDuXIMQy19Ag4l2B0dEh0kYN3Xa4QbvwAJENr4xoO2G5L/SdqIck3guLjZb2RXamJu3Ua7WZqZChcRcf20i/FT32JaqNemrJzdSwXRGA02KmAsaV95Xr+Ns20es2DDJwIt7q8qVCYyzjypRK8/1rxK9YXjmPwlGU23WCRNsLV5JlWB0agzaZydG8Kax54Y2ikfWSrcnjpkbthhVGDcT5HqS1wG2alAOQu58RwNepoIjL/qcxT3yhM1hh1G0mq2YuJJwveCqaRtm9CC6ulhq1JTTqrcio23iSTaI/RCLey3qTfLV3GW5q1JdQuP1z2KOS0BjB5rin+suuoXHjsNAsLGnluNptphYbNcv38IYxaZ7WqJ2EhPjKe8e1zikbFeKy7yLQEr46P99jNM9a1YyHEHFKFp/CHJzDNbljkRp1bAvjJk6+p0WcUA8X6TxHYbwvtGhAcEEZXPO8KNlQoEbtHIVGnc/3INh4D6UeLuCZ0VHLDwg4n233IIOL6ZLsJ3N+mgqacCE26iBj1KRx1GvXwy1WnU/dvB3TqGF688VfcVOF0LHID34QINpQHBoPn/kefsApI/t2uN6isPiQS2rwXFwqq7Lghw7jTVARGoNbFAEa1r5vk3rLbh43BPlfC8Dg9k9luAPmJ0L+kgpNMBG6TONbvqdhVBTU7QLL4p4Liw8kj1BfgEtlPQHccA9BgqryPRcCmrjN41ntnoNX3GVSGLTz5PmmYlymKIefmJPJ9/yv/n7CIa4f2L/gjozcn+fyc1W4VLzQ5SfmoGGIQ+Nxbdxjk8qiV9xsMScyc0n1UtzMm66uJalIatTifE892TeqoyrFLezoluNGUfYwgt3C4A9jQCpCY3lZNAtzS3ABeeyEeXeDLsXdAJPkiP2EHwukUYQC2knDTT8uLnxJ4pzM+yfKcWHKEYWvE7B32vD9DxZFtN05aErLw0X4GfzSsMi8u5lCXMZhYDej46XN3yZrbdRW402wAi4yn1XHaS4DyOJqqY7dTFX64SvmE9MoQhwaC2TYfMsvj4u0x+sub7mMOrgaK5jKvdyuJHBqbNRBi12SPO4jNBntyW0ZromLinsgNHDi+h/V+R6etNoTKsWN7zFgU9zM4PRKMnPImDvHWrHuuFUNVSnug6sp7v4yzHgVh33M9T8qQ+OstGuMKsW9tMUdmgbRr5nRmcZ7nAQYwLotadTHdtubHeKCW+Jqn1GdnwCe/5HmeySM2mu5d60C1ynF1dJFNs4kJ71gM+dNXFJGPWtZh9E5bkqMs9H7MrzwhnF1ErN1q9A7cHlbuNM9N3CqMOpLO1PuD3fwHTgV319g1MfWFVRvxj1mu3n5gRMb7lyjbt/S+GZcaw4nGWI6cfE8LmrUm4JRt1duxwtRERcg6ivPMtFBSeBUTGK2Hrk94LKPQDPXsT394nlc9JfRXpKYawW1j+825vv/hKbhZNIa5wUvccuSmD7vMT8Ml4qRL2b2E8KZuO6HcyxVFLb2iAuLrRe8iev+MSXNM5+Am03c5ieu+8eUdCP3iXs/QmYWnTKr7NRCL/mPb1w1LZyfgPvPMHNpzMF69njON26opBHsI3BhWkXr2q/Ejy/9xlUxL38OrpZ6UvpwWvjSG+5ITVPjJ0xV/56JWzD/4uMqOiXig7R7e5qV/9Ibrpqh+2NwFbVGfZYxl+MqOs6mBu5Xj9r1FHWC1cBl9pStq3ofrqqjBGRxR2FaCfGCiy73SwTegKsi+JPH9a7g5rm/1kSySwTc/Xo8SLrHbdk9Uwc3XFqP2Dtf8YoAIU4my9ANrqqzBKpx0eWlIodX4JvNJnaD+6XoXIxq3EzjSlU9c1e4qo4BkcDNwKjErbHuqjpMQDmuhuKF76nWbj+4yNCIUbXi0xl7HtmHn4Tr2bytdhLb20OwuGDCudEnIzR8zSRg2hpzp2N3OjGLEz8k7r0fxVsPHaNazS9/21a7rdo4X6SAuxocXVzQHV1fk9w+1ZSq2axU8/cr33OsTXGvHeHCiVbsp0GG+cXdd92ur46Bq9WM4uGulTErCneLZWRFbUESh6I6Aqpm3ahQM7UOMAuWmc6BT3AiCwLxRqJmc0tHsyZWM4IGjqKXD9TRrqozi8S4COCJdGXbmE7a+lyo5swTagWAb8BFJrzWrdT0zrYjsTY/OCRx21bcVONCcgkaFmkejpZLqtdmx5PGVbG3K8BlxTLtDjygak5MsZqh6V7PkriK3CouLjKMRUkvzKqWda+omgEpOYhcSyds7ASJBG5HiVf2DqZm86FGxwiQyyTc1SlTZWoWTdows6dbhjtVdGxRYd19+op5VVnQhHp62aWhU+Y6hapUzdQFK1dzJe6gC1yOr3iX44Z1ZN4DwNsFn5S5hm17uzCJqybtUtxEyeDN4BqmxR+y6TGJKWbmmBDKbLr1mNloxqLRrCWnFQ+3QY99BW6Zr+hvSlNz38z6oo5tj3c2uzSCr2b2fbG1LuAulWSaOf27WVleNeExIY93xHQOO8vPYVTNkVFyewTzsOP7f9y9kUjFyluBu3ay9U6i5M1Nz4m9lj4ufrwLZxBTNYtI7rhKliIR7tJG+R6RylwVZTYJTIZraT0v2dpcdknIC+5WcaFRTta89hCJ1Bz7FAQmjmvomU7asxjzR/PDtVZcRpZ5vs2/slYO9/ZRymzGztCXZV76X7xJ+4GrIgjk4p4Tbvm8Vgv39nmmZ8O5yjKP6Nqs00n75ad+Vpsp2OMt4nrhpbyjvS7u7Y9S26bMksdwUTVHTxfsiRsoLfBNZTcTHrWUORWFd6F6+V9SZgI3ssx00p7ETM3opZZQafl2hWJvL/18orEOrY3O8q/y0N+2/eWvpCLppb+P4PxZKaq0OH+wEBwvTQNg9kMUdu+93fE6u2BcQ9Ups7b5Okq1po92Lz37resiX53IUuedNQfsD6W1GVRWVNURNOVVzW4aI0YkyXwX5Y01PFasp51eItybLHenvUMDPVMSmkZg1I/cWMeDbJZoorhtqsga3/v4JA6SSGU89e1/LsayqmZ6hpEVyKQ8VTfF5VlfjkWUxf2W5ZlOZTFIoat3SameCXEpc8W3Km55zLB+ZUL9mrg32U7pVEZ9YqmpjDGb0UJ4W6KjtKH1/lzOIWqluMvKkTdOpzIDy6iaMUN3cdrxv3WktF1Zu+mVd2Bc+TEhc+DOvk7rqVfBvZ0G1+QCSaWqU9uex/94iZJWszMnNaeVHI4nqIlEbF0xCdbcxArEyHS6WfnhIoLVU9l3cii/RaXyqAE4ybKO/KTymJBnZMbSlPpdC2vx8rLdBXsnvq1aIrfVLNx62/zYDN529lPG6wkxScOK1+uczLXNwj7utgJs7+Dbk0gj5arm9N80PhSlvBSFxve3Ay/aFPhSG6eDEGuXirPVRsv1yXJijDlTGQd3kDRN5JTiWveLpRTUM6PHZTxH2xesMuPpcTi7gFTVQtzGvCoOkqhT8YrphIaiyTU4L8uwR2zVcsS4g1kze+6jWj2dxwkRn9ubzzPnpdl81WNxPrhPuft/Q7+wy1aFOwhVHL7WR+vFxGTzGXQT6qo8NlQrcQfrBne4fQLubTsbpanLedmWGEe2Ue0B/Dm430+rgUufUdegfzbuYOpyDpH+vbiDwQnWWYJ/PO7A29e496mPkxXU4tIpy5K+oe834JZvaf1S3AHr5y7ZQVSO2+/Yfb7/2korXUTMvwiXySpYpCkxAwAAOUJ+Fy6T8Wp9tL+sxb9FUf49a8Z+C66k/OH+4f7h/sdwP8LN+MP9w/3D/cPtAXfz38DdD7zdyYqeHf+/Gpc+YJ6N4n41rlYIV383bkF+DW7ayzg97sX9faCwe68S916r0D0u2oRsM1fUWJS2dNyPY+sCVzO/vDfhakjYNcaKb7RZ2Py6SylcDZh7rzNcybNrICCmax1b3bosict+9OGoG9xl9ZFxqf1urmtF1zRV4zJgI1SMOz6HC5dU5L5T+03CtrcVSeK+bKah5/yhAldDuKrXkR32dVl0a79Z8bmbaUpwhZK2i0Z7v/blNW3lyjkAu1tchqo5dkm9Z9dSvPmwCe52F1hOdWUqtV+sT07SpepdSOFeS3C/IE8SV5/FAFdXdwJCLpZ0B1mHkru1FN3vFpPDpSQVamX2CzfD7pcaScldiI6wK7yQNocrRgUGpq5SVQn+m2XqZk7XQoQBt8RN64j0ty418hKgzKKEcLTLN9awjy3X1HuoLhRgx/uAPpYaaRlZ84zSYFqy9YILWPU1qT4cgqEaiV3r3Ik+ZOUUb/N9bXmU6B1BrIWXLjV9o8iJH+fdrBoNrWypcT9iqZGXYdaipZvR3xTVKJdtkp2jq08BpUtNPHtTVNOB7C6vkZIQl3mF741qupDQBJW4zH5JtP+B9lsUb3F3s7i46bktSdhTVNOFTKPbEC7g3qKaoNeopgs5pm5W5rBxutQYnxHVdCCjPYGZ86ogXWo+1ytsLysHM9zUAU7qnUb2M2Wta8TU/wU/xCtsL6dfOlQ/Sf4PUq1801mHnRYAAAAASUVORK5CYII=;fillColor=#182E3E;strokeColor=#FFFFFF;fontColor=#FFFFFF;" vertex="1" parent="1">
          <mxGeometry x="108.87" y="-762.88" width="78.58" height="70" as="geometry" />
        </mxCell>
        <mxCell id="6F0w-NDkWvbNgcwxt4U1-27" value="" style="shape=image;verticalLabelPosition=bottom;labelBackgroundColor=none;verticalAlign=top;aspect=fixed;imageAspect=0;image=https://github.githubassets.com/images/modules/site/social-cards/package-registry.png;fillColor=#182E3E;strokeColor=#FFFFFF;fontColor=#FFFFFF;" vertex="1" parent="1">
          <mxGeometry x="102.05000000000001" y="-552.88" width="92.22" height="48.5" as="geometry" />
        </mxCell>
        <mxCell id="6F0w-NDkWvbNgcwxt4U1-30" value="" style="edgeStyle=orthogonalEdgeStyle;rounded=0;orthogonalLoop=1;jettySize=auto;html=1;labelBackgroundColor=none;strokeColor=#23445D;fontColor=default;" edge="1" parent="1" source="6F0w-NDkWvbNgcwxt4U1-28">
          <mxGeometry relative="1" as="geometry">
            <mxPoint x="253.07999999999993" y="-860" as="targetPoint" />
          </mxGeometry>
        </mxCell>
        <mxCell id="6F0w-NDkWvbNgcwxt4U1-28" value="" style="shape=image;verticalLabelPosition=bottom;labelBackgroundColor=none;verticalAlign=top;aspect=fixed;imageAspect=0;image=https://upload.wikimedia.org/wikipedia/commons/thumb/9/9a/Visual_Studio_Code_1.35_icon.svg/2048px-Visual_Studio_Code_1.35_icon.svg.png;fillColor=#182E3E;strokeColor=#FFFFFF;fontColor=#FFFFFF;" vertex="1" parent="1">
          <mxGeometry x="150" y="-880" width="40" height="40" as="geometry" />
        </mxCell>
        <mxCell id="6F0w-NDkWvbNgcwxt4U1-39" value="" style="edgeStyle=orthogonalEdgeStyle;rounded=0;orthogonalLoop=1;jettySize=auto;html=1;labelBackgroundColor=none;strokeColor=#23445D;fontColor=default;" edge="1" parent="1" source="6F0w-NDkWvbNgcwxt4U1-37" target="6F0w-NDkWvbNgcwxt4U1-8">
          <mxGeometry relative="1" as="geometry" />
        </mxCell>
        <mxCell id="6F0w-NDkWvbNgcwxt4U1-37" value="" style="shape=image;verticalLabelPosition=bottom;labelBackgroundColor=none;verticalAlign=top;aspect=fixed;imageAspect=0;image=https://seeklogo.com/images/G/git-logo-CD8D6F1C09-seeklogo.com.png;fillColor=#182E3E;strokeColor=#FFFFFF;fontColor=#FFFFFF;" vertex="1" parent="1">
          <mxGeometry x="254.1" y="-885" width="50.16" height="50" as="geometry" />
        </mxCell>
        <mxCell id="6F0w-NDkWvbNgcwxt4U1-51" value="" style="rounded=1;whiteSpace=wrap;html=1;strokeColor=#000000;fontColor=#FFFFFF;fillColor=none;" vertex="1" parent="1">
          <mxGeometry x="74.6" y="-790" width="147.12" height="437.12" as="geometry" />
        </mxCell>
      </root>
    </mxGraphModel>
  </diagram>
</mxfile>
